# xmcd
#
# Track frame offsets:
#	150
#	12352
#	24592
#	37130
#	50295
#	70067
#	83515
#	99415
#	116015
#	133700
#	149797
#	168617
#
# Disc length: 2511
#
# Revision: 2
# Processed by: cddbd v1.5.1PL0 Copyright (c) Steve Scherf et al.
# Submitted via: audiograbber 1.83.01
# Normalized: r1:DSETVAR1
#
DISCID=a509cd0c
DTITLE=Various Artist - Motown Year By Year
DYEAR=1900
DGENRE=
TTITLE0=Martha and The Vandellas - Dancing In The Street
TTITLE1=The Spinners - Sweet Thing
TTITLE2=The Marvelettes - Here I Am Baby
TTITLE3=Diana Ross and The Supremes - Love Child
TTITLE4=The Temptations - Masterpiece
TTITLE5=Willie Hutch - Brother's Gonna Work It Out
TTITLE6=Leon Ware - Come Live With Me Angel
TTITLE7=Thelma Houston - Don't Leave Me This Way
TTITLE8=Diana Ross - I'm Coming Out
TTITLE9=Jermaine Jackson - Let's Get Serious
TTITLE10=Stevie Wonder - Go Home
TTITLE11=The Commodores - Nightshift
EXTD=
EXTT0=
EXTT1=
EXTT2=
EXTT3=
EXTT4=
EXTT5=
EXTT6=
EXTT7=
EXTT8=
EXTT9=
EXTT10=
EXTT11=
PLAYORDER=
